<?xml version="1.0" standalone="no"?>
<!DOCTYPE svg PUBLIC "-//W3C//DTD SVG 20010904//EN"
 "http://www.w3.org/TR/2001/REC-SVG-20010904/DTD/svg10.dtd">
<svg version="1.0" xmlns="http://www.w3.org/2000/svg"
 width="500.000000pt" height="500.000000pt" viewBox="0 0 500.000000 500.000000"
 preserveAspectRatio="xMidYMid meet">
<metadata>
Created by potrace 1.14, written by Peter Selinger 2001-2017
</metadata>
<g transform="translate(0.000000,500.000000) scale(0.100000,-0.100000)"
fill="#000000" stroke="none">
<path d="M2547 3784 c-1 -1 -54 -4 -117 -7 -123 -7 -139 -9 -156 -19 -6 -4
-26 -10 -45 -13 -45 -7 -139 -34 -162 -46 -9 -5 -42 -19 -72 -30 -30 -11 -55
-25 -55 -30 0 -5 -7 -9 -15 -9 -8 0 -23 -4 -33 -9 -9 -5 -29 -14 -44 -21 -15
-7 -30 -20 -33 -29 -3 -9 -29 -31 -58 -48 -63 -40 -172 -143 -182 -172 -3 -12
-24 -36 -47 -53 -22 -18 -51 -56 -65 -85 -15 -29 -30 -53 -35 -53 -4 0 -8 -8
-8 -18 0 -10 -14 -40 -32 -68 -18 -27 -33 -51 -34 -54 0 -3 -4 -24 -9 -47 -4
-24 -11 -43 -15 -43 -10 0 -33 -74 -50 -155 -6 -33 -15 -76 -19 -95 -11 -49
-2 -348 12 -440 7 -42 19 -84 28 -96 5 -6 10 -19 12 -30 7 -35 62 -161 104
-239 6 -11 19 -38 29 -60 18 -44 39 -67 69 -79 15 -5 16 -9 6 -15 -10 -6 -6
-15 15 -35 16 -14 32 -26 36 -26 5 0 8 -6 8 -13 0 -20 106 -118 173 -161 31
-20 57 -41 57 -46 0 -5 17 -18 38 -28 20 -11 55 -29 77 -40 98 -50 153 -74
190 -82 22 -5 60 -16 85 -25 77 -29 129 -35 310 -36 161 -1 225 7 325 41 33
11 75 23 93 25 18 3 60 19 93 35 32 17 59 28 59 25 0 -6 109 54 129 72 9 8 36
27 60 42 24 16 61 45 82 66 22 21 39 34 39 30 0 -4 12 10 26 31 15 21 33 43
41 48 24 13 83 79 83 92 0 6 11 24 25 40 14 16 25 34 25 40 0 6 14 28 30 49
17 21 33 56 37 77 3 22 11 45 17 51 12 13 55 111 61 140 2 10 7 28 11 40 4 12
9 31 10 42 1 11 5 36 9 55 4 19 8 69 10 110 1 41 6 83 10 92 7 18 -7 207 -20
263 -12 51 -11 58 14 71 34 18 41 34 34 79 -13 85 -48 128 -110 138 -25 4 -48
20 -49 35 -1 6 -2 23 -2 36 -1 13 -15 39 -32 57 -16 19 -30 38 -30 43 0 5 -27
42 -60 83 -33 40 -60 75 -60 79 0 3 -28 31 -62 62 -34 31 -69 64 -79 73 -9 9
-44 35 -78 58 -33 23 -61 48 -61 56 0 7 -8 14 -17 14 -30 0 -77 13 -93 25 -14
11 -68 39 -80 40 -3 1 -22 9 -43 19 -21 10 -47 20 -58 22 -11 2 -29 7 -39 10
-10 3 -29 8 -42 11 -13 3 -27 6 -33 8 -10 3 -65 11 -130 20 -16 2 -30 5 -30 6
0 2 -76 6 -78 4z"/>
</g>
</svg>
